<svg xmlns:dc="http://purl.org/dc/elements/1.1/" xmlns:cc="http://creativecommons.org/ns#" xmlns:rdf="http://www.w3.org/1999/02/22-rdf-syntax-ns#" xmlns:svg="http://www.w3.org/2000/svg" xmlns="http://www.w3.org/2000/svg" x="0px" y="0px" version="1.1" viewBox="0 0 550.09592 378.55369" xml:space="preserve" enable-background="new 0 0 538.473 388.481" id="Calque_1" viewport="0 0 400px 274px"><defs id="defs50"/>
<g transform="translate(-13.215,-1.8413253)" id="g3">
	<linearGradient x1="247.87" y1="20.135" x2="570.66998" gradientUnits="userSpaceOnUse" y2="283.26999" id="SVGID_1_">
		<stop offset=".1838" style="stop-color:#73953D" id="stop6"/>
		<stop offset=".1984" style="stop-color:#719340" id="stop8"/>
		<stop offset=".211" style="stop-color:#6D8D4B" id="stop10"/>
		<stop offset=".2227" style="stop-color:#64825D" id="stop12"/>
		<stop offset=".234" style="stop-color:#597476" id="stop14"/>
		<stop offset=".245" style="stop-color:#4A6196" id="stop16"/>
		<stop offset=".2555" style="stop-color:#384ABC" id="stop18"/>
		<stop offset=".2599" style="stop-color:#303FCF" id="stop20"/>
		<stop offset=".2913" style="stop-color:#2F42CA" id="stop22"/>
		<stop offset=".3268" style="stop-color:#2D49BD" id="stop24"/>
		<stop offset=".3642" style="stop-color:#2A55A6" id="stop26"/>
		<stop offset=".4031" style="stop-color:#256786" id="stop28"/>
		<stop offset=".443" style="stop-color:#207D5E" id="stop30"/>
		<stop offset=".4833" style="stop-color:#18982C" id="stop32"/>
		<stop offset=".5152" style="stop-color:#12B000" id="stop34"/>
		<stop offset=".5841" style="stop-color:#13AE01" id="stop36"/>
		<stop offset=".6089" style="stop-color:#16A704" id="stop38"/>
		<stop offset=".6266" style="stop-color:#1D9C0A" id="stop40"/>
		<stop offset=".6409" style="stop-color:#258B12" id="stop42"/>
		<stop offset=".6531" style="stop-color:#31751C" id="stop44"/>
		<stop offset=".6638" style="stop-color:#3E5A29" id="stop46"/>
		<stop offset=".673" style="stop-color:#4E3C37" id="stop48"/>
	</linearGradient>
	<path style="fill:url(#SVGID_1_)" fill="url(#SVGID_1_)" d="m 215.2,102.97 c 0,0 10.257,15.78 31.56,29.981 21.303,14.201 21.303,14.202 21.303,14.202 0,0 109.67,-106.51 231.17,-131.76 121.5,-25.25 37.082,-12.624 14.201,16.569 -22.881,29.193 -167.27,172 -178.31,175.16 -11.04,3.16 22.881,22.881 52.074,81.266 29.193,58.385 71.797,88.367 71.797,88.367 l -23.699,-13.717 17.885,17.357 -85.135,-74.168 c 0,0 -84.243,-28.932 -121.59,-59.966 -37.348,-31.035 -42.607,-64.174 -55.758,-73.117 -13.151,-8.942 -34.717,-25.775 -47.868,-42.607 -13.15,-16.833 -38.399,-19.278 -38.399,-19.278 l 10.784,-8.284 c 0,0 10.783,0.209 32.35,-13.994 21.58,-14.199 53.75,-9.357 67.65,13.994 z" id="path50"/>
	<path fill="#3e3d40" d="m 137.88,111.26 c 0,0 11.526,-3.92 15.208,-7.839 3.682,-3.919 12.888,-12.598 25.775,2.657 12.887,15.255 -1.005,14.729 -20.491,10.784 -19.49,-3.95 -20.49,-5.6 -20.49,-5.6 z" opacity="0.59" id="path52"/>
	<path fill="#1a171b" d="m 13.215,119.54 c 0,0 41.458,-16.569 102,-16.569 0,0 10.83,5.522 22.665,8.284 0,0.01 -97.05,-1.97 -124.66,8.29 z" id="path54"/>
	<ellipse fill="#1a171b" cx="163.60001" cy="107.65" ry="7.4559999" rx="8.2010002" id="ellipse56"/>
	<g stroke-width="0.25" stroke="#000000" id="g58">
		<path fill="#5d4d47" d="m 335.65,207.06 -22.465,-24.459 c 31.977,-23.67 57.969,-89.945 57.969,-89.945 22.092,-33.138 -11.313,-16.199 -11.313,-16.199 0,0 83.111,-51.654 124.48,-57.467 34.664,-4.872 60.125,-20.627 29.639,12.916 -30.49,33.54 -153.86,162.54 -178.31,175.16 z" id="path60"/>
		<g fill="none" opacity="0.58" id="g62">
			<path d="M 368.92,72.523 C 417.213,48.39 469.29,35.24 521.41,23.328" id="path64"/>
			<path d="M 507.17,39.291 C 464.027,51.021 421.42,63.12 378.13,75.111" id="path66"/>
			<path d="m 484.26,63.684 c -36.535,6.8 -72.83,13.112 -109.33,19.938" id="path68"/>
			<path d="m 465.86,82.933 c -31.289,1.753 -61.797,3.857 -92.592,5.937" id="path70"/>
			<path d="m 368.8,102.35 c 1.596,-0.303 2.648,1.801 4.227,1.801 3.682,0 6.838,1.578 10.52,2.104 16.832,2.63 32.613,7.364 49.488,10.446" id="path72"/>
			<path d="M 449.23,100.14 C 422.474,99.419 395.646,97.841 368.607,96.405" id="path74"/>
			<path d="m 359.91,117.1 c 14.693,8.61 28.369,18.605 42.799,27.621" id="path76"/>
			<path d="m 420.38,129.5 c -19.086,-6.645 -38.094,-13.503 -57.135,-20.272" id="path78"/>
			<path d="m 349.19,140.47 c 10.158,9.966 19.627,19.96 29.93,29.585" id="path80"/>
			<path d="m 391.04,157.8 c -12.98,-8.687 -25.963,-17.374 -38.943,-26.061" id="path82"/>
			<path d="m 333.07,162.13 c 6.486,7.703 12.975,15.405 19.461,23.107 1.477,1.755 2.955,3.51 4.434,5.265" id="path84"/>
			<path d="m 365.63,181.81 c -9.584,-8.626 -19.113,-17.315 -28.645,-26" id="path86"/>
			<path d="m 325.9,172.05 c 7.678,7.847 16.096,16.263 23.539,24.426" id="path88"/>
		</g>
	</g>
</g>
<metadata id="metadata47"><rdf:RDF><cc:Work><dc:format>image/svg+xml</dc:format><dc:type rdf:resource="http://purl.org/dc/dcmitype/StillImage"/><cc:license rdf:resource="http://creativecommons.org/publicdomain/zero/1.0/"/><dc:publisher><cc:Agent rdf:about="http://openclipart.org/"><dc:title>Openclipart</dc:title></cc:Agent></dc:publisher><dc:title/><dc:date>2012-09-05T15:34:43</dc:date><dc:description>Un jour, il y eut un immense incendie de for&#195;&#170;t. Les animaux observaient le d&#195;&#169;sastre, terrifi&#195;&#169;s et impuissants. Seul le petit colibri s&#226;&#8364;&#8482;activait, allant chercher quelques gouttes avec son bec pour les jeter sur le feu. Le tatou, agac&#195;&#169;, lui dit : \n&#194;&#171; Tu es fou! Ce n&#226;&#8364;&#8482;est pas avec ces gouttes d&#226;&#8364;&#8482;eau que tu vas &#195;&#169;teindre le feu ! &#194;&#187; Et le colibri lui r&#195;&#169;pondit : &#194;&#171; Je le sais, mais je fais ma part. &#194;&#187;\nL&#195;&#169;gende am&#195;&#169;rindienne\n----------------------------------------------------------\nOne day there was a huge forest fire. The animals watched the disaster, terrified and helpless. Only the little hummingbird was busy, fetching a few drops with its beak to throw on the fire. Armadillo, annoyed, said:\n"You're crazy! It is not with these drops of water that you will put out the fire! "And the hummingbird replied," I know, but I do my part. '\nNative American legend</dc:description><dc:source>https://openclipart.org/detail/172157/humming-bird-by-presquesage-172157</dc:source><dc:creator><cc:Agent><dc:title>presquesage</dc:title></cc:Agent></dc:creator><dc:subject><rdf:Bag><rdf:li>bird</rdf:li><rdf:li>colibri</rdf:li><rdf:li>humming-bird</rdf:li><rdf:li>hummingbird</rdf:li><rdf:li>oiseau</rdf:li><rdf:li>oiseau mouche</rdf:li></rdf:Bag></dc:subject></cc:Work><cc:License rdf:about="http://creativecommons.org/publicdomain/zero/1.0/"><cc:permits rdf:resource="http://creativecommons.org/ns#Reproduction"/><cc:permits rdf:resource="http://creativecommons.org/ns#Distribution"/><cc:permits rdf:resource="http://creativecommons.org/ns#DerivativeWorks"/></cc:License></rdf:RDF></metadata></svg>